<svg width="32" height="32" viewBox="0 0 32 32" xmlns="http://www.w3.org/2000/svg">
  <!-- Background Circle -->
  <circle cx="16" cy="16" r="16" fill="#3B82F6"/>
  
  <!-- Letter Tiles -->
  <!-- S -->
  <rect x="4" y="8" width="4" height="4" rx="1" fill="#10B981"/>
  <text x="6" y="11" font-family="Arial, sans-serif" font-size="3" font-weight="bold" fill="white" text-anchor="middle">S</text>
  
  <!-- C -->
  <rect x="9" y="8" width="4" height="4" rx="1" fill="#F59E0B"/>
  <text x="11" y="11" font-family="Arial, sans-serif" font-size="3" font-weight="bold" fill="white" text-anchor="middle">C</text>
  
  <!-- R -->
  <rect x="14" y="8" width="4" height="4" rx="1" fill="#EF4444"/>
  <text x="16" y="11" font-family="Arial, sans-serif" font-size="3" font-weight="bold" fill="white" text-anchor="middle">R</text>
  
  <!-- A -->
  <rect x="19" y="8" width="4" height="4" rx="1" fill="#8B5CF6"/>
  <text x="21" y="11" font-family="Arial, sans-serif" font-size="3" font-weight="bold" fill="white" text-anchor="middle">A</text>
  
  <!-- B -->
  <rect x="24" y="8" width="4" height="4" rx="1" fill="#06B6D4"/>
  <text x="26" y="11" font-family="Arial, sans-serif" font-size="3" font-weight="bold" fill="white" text-anchor="middle">B</text>
  
  <!-- S -->
  <rect x="4" y="13" width="4" height="4" rx="1" fill="#10B981"/>
  <text x="6" y="16" font-family="Arial, sans-serif" font-size="3" font-weight="bold" fill="white" text-anchor="middle">S</text>
  
  <!-- T -->
  <rect x="9" y="13" width="4" height="4" rx="1" fill="#F59E0B"/>
  <text x="11" y="16" font-family="Arial, sans-serif" font-size="3" font-weight="bold" fill="white" text-anchor="middle">T</text>
  
  <!-- E -->
  <rect x="14" y="13" width="4" height="4" rx="1" fill="#EF4444"/>
  <text x="16" y="16" font-family="Arial, sans-serif" font-size="3" font-weight="bold" fill="white" text-anchor="middle">E</text>
  
  <!-- R -->
  <rect x="19" y="13" width="4" height="4" rx="1" fill="#8B5CF6"/>
  <text x="21" y="16" font-family="Arial, sans-serif" font-size="3" font-weight="bold" fill="white" text-anchor="middle">R</text>
  
  <!-- Pro Badge -->
  <rect x="20" y="18" width="8" height="6" rx="3" fill="#1E40AF"/>
  <text x="24" y="22" font-family="Arial, sans-serif" font-size="2.5" font-weight="bold" fill="white" text-anchor="middle">PRO</text>
  
  <!-- Decorative Elements -->
  <circle cx="8" cy="22" r="1.5" fill="rgba(255,255,255,0.3)"/>
  <circle cx="24" cy="6" r="1" fill="rgba(255,255,255,0.2)"/>
  <circle cx="6" cy="24" r="1" fill="rgba(255,255,255,0.2)"/>
</svg>
